HIERARCHY
ROOT mixamorig:Hips
{
	OFFSET 0.000000 201.639420 0.000000
	CHANNELS 6 Xposition Yposition Zposition Xrotation Yrotation Zrotation
	JOINT mixamorig:Spine
	{
		OFFSET 0.006200 19.524994 -2.481800
		CHANNELS 3 Xrotation Yrotation Zrotation
		JOINT mixamorig:Spine1
		{
			OFFSET -0.000900 22.835007 -2.825400
			CHANNELS 3 Xrotation Yrotation Zrotation
			JOINT mixamorig:Spine2
			{
				OFFSET -0.020600 26.552490 -3.193300
				CHANNELS 3 Xrotation Yrotation Zrotation
				JOINT mixamorig:Neck
				{
					OFFSET -0.060000 30.701813 1.352200
					CHANNELS 3 Xrotation Yrotation Zrotation
					JOINT mixamorig:Head
					{
						OFFSET -0.087200 22.547607 3.670900
						CHANNELS 3 Xrotation Yrotation Zrotation
						JOINT mixamorig:HeadTop_End
						{
							OFFSET -0.830600 40.355194 7.893500
							CHANNELS 3 Xrotation Yrotation Zrotation
							End Site
							{
								OFFSET 0.000000 30.592346 0.000000
							}
						}
						JOINT mixamorig:RightEye
						{
							OFFSET -6.302100 18.118591 16.197100
							CHANNELS 3 Xrotation Yrotation Zrotation
							End Site
							{
								OFFSET 0.000000 30.592346 0.000000
							}
						}
						JOINT mixamorig:LeftEye
						{
							OFFSET 6.741500 18.382690 16.401899
							CHANNELS 3 Xrotation Yrotation Zrotation
							End Site
							{
								OFFSET 0.000000 30.592346 0.000000
							}
						}
					}
				}
				JOINT mixamorig:LeftShoulder
				{
					OFFSET 11.924900 18.230499 1.425400
					CHANNELS 3 Xrotation Yrotation Zrotation
					JOINT mixamorig:LeftArm
					{
						OFFSET 25.435989 -0.697632 -5.229300
						CHANNELS 3 Xrotation Yrotation Zrotation
						JOINT mixamorig:LeftForeArm
						{
							OFFSET 54.684776 0.000000 0.000000
							CHANNELS 3 Xrotation Yrotation Zrotation
							JOINT mixamorig:LeftHand
							{
								OFFSET 55.098175 0.000000 0.000000
								CHANNELS 3 Xrotation Yrotation Zrotation
								JOINT mixamorig:LeftHandMiddle1
								{
									OFFSET 23.369751 0.000000 0.000000
									CHANNELS 3 Xrotation Yrotation Zrotation
									JOINT mixamorig:LeftHandMiddle2
									{
										OFFSET 6.378677 0.000000 0.000000
										CHANNELS 3 Xrotation Yrotation Zrotation
										JOINT mixamorig:LeftHandMiddle3
										{
											OFFSET 6.148331 0.000000 0.000000
											CHANNELS 3 Xrotation Yrotation Zrotation
											JOINT mixamorig:LeftHandMiddle4
											{
												OFFSET 6.582504 0.000000 0.000000
												CHANNELS 3 Xrotation Yrotation Zrotation
												End Site
												{
													OFFSET -1.168900 6.395691 1.028606
												}
											}
										}
									}
								}
								JOINT mixamorig:LeftHandThumb1
								{
									OFFSET 7.235672 -3.848206 5.434273
									CHANNELS 3 Xrotation Yrotation Zrotation
									JOINT mixamorig:LeftHandThumb2
									{
										OFFSET 6.568451 -3.792297 3.792300
										CHANNELS 3 Xrotation Yrotation Zrotation
										JOINT mixamorig:LeftHandThumb3
										{
											OFFSET 6.063080 -3.500519 3.500518
											CHANNELS 3 Xrotation Yrotation Zrotation
											JOINT mixamorig:LeftHandThumb4
											{
												OFFSET 4.793182 -2.767334 2.767349
												CHANNELS 3 Xrotation Yrotation Zrotation
												End Site
												{
													OFFSET 0.101639 6.054260 1.275483
												}
											}
										}
									}
								}
								JOINT mixamorig:LeftHandIndex1
								{
									OFFSET 23.101074 -0.309540 4.992809
									CHANNELS 3 Xrotation Yrotation Zrotation
									JOINT mixamorig:LeftHandIndex2
									{
										OFFSET 6.226883 0.000000 0.000000
										CHANNELS 3 Xrotation Yrotation Zrotation
										JOINT mixamorig:LeftHandIndex3
										{
											OFFSET 6.094330 0.000000 0.000000
											CHANNELS 3 Xrotation Yrotation Zrotation
											JOINT mixamorig:LeftHandIndex4
											{
												OFFSET 5.482605 0.000000 0.000000
												CHANNELS 3 Xrotation Yrotation Zrotation
												End Site
												{
													OFFSET -1.427902 5.233032 0.797164
												}
											}
										}
									}
								}
								JOINT mixamorig:LeftHandRing1
								{
									OFFSET 22.299240 0.021149 -3.964172
									CHANNELS 3 Xrotation Yrotation Zrotation
									JOINT mixamorig:LeftHandRing2
									{
										OFFSET 6.321869 0.000000 0.000000
										CHANNELS 3 Xrotation Yrotation Zrotation
										JOINT mixamorig:LeftHandRing3
										{
											OFFSET 5.899796 0.000000 0.000000
											CHANNELS 3 Xrotation Yrotation Zrotation
											JOINT mixamorig:LeftHandRing4
											{
												OFFSET 6.517899 0.000000 0.000000
												CHANNELS 3 Xrotation Yrotation Zrotation
												End Site
												{
													OFFSET -1.637299 6.232208 0.980890
												}
											}
										}
									}
								}
								JOINT mixamorig:LeftHandPinky1
								{
									OFFSET 20.463791 -0.302338 -8.562233
									CHANNELS 3 Xrotation Yrotation Zrotation
									JOINT mixamorig:LeftHandPinky2
									{
										OFFSET 6.908646 0.000000 0.000000
										CHANNELS 3 Xrotation Yrotation Zrotation
										JOINT mixamorig:LeftHandPinky3
										{
											OFFSET 4.622849 0.000000 0.000000
											CHANNELS 3 Xrotation Yrotation Zrotation
											JOINT mixamorig:LeftHandPinky4
											{
												OFFSET 5.216080 0.000000 0.000000
												CHANNELS 3 Xrotation Yrotation Zrotation
												End Site
												{
													OFFSET -0.606308 5.116241 0.814926
												}
											}
										}
									}
								}
							}
						}
					}
				}
				JOINT mixamorig:RightShoulder
				{
					OFFSET -12.001300 18.284088 1.348900
					CHANNELS 3 Xrotation Yrotation Zrotation
					JOINT mixamorig:RightArm
					{
						OFFSET -25.308500 -0.751312 -5.164599
						CHANNELS 3 Xrotation Yrotation Zrotation
						JOINT mixamorig:RightForeArm
						{
							OFFSET -54.684429 0.000000 0.000000
							CHANNELS 3 Xrotation Yrotation Zrotation
							JOINT mixamorig:RightHand
							{
								OFFSET -55.150291 0.000000 0.000000
								CHANNELS 3 Xrotation Yrotation Zrotation
								JOINT mixamorig:RightHandMiddle1
								{
									OFFSET -23.317566 0.000000 0.000000
									CHANNELS 3 Xrotation Yrotation Zrotation
									JOINT mixamorig:RightHandMiddle2
									{
										OFFSET -6.378403 0.000000 0.000000
										CHANNELS 3 Xrotation Yrotation Zrotation
										JOINT mixamorig:RightHandMiddle3
										{
											OFFSET -6.148193 0.000000 0.000000
											CHANNELS 3 Xrotation Yrotation Zrotation
											JOINT mixamorig:RightHandMiddle4
											{
												OFFSET -6.583389 0.000000 0.000000
												CHANNELS 3 Xrotation Yrotation Zrotation
												End Site
												{
													OFFSET 1.171692 6.395905 1.029786
												}
											}
										}
									}
								}
								JOINT mixamorig:RightHandThumb1
								{
									OFFSET -7.190521 -3.860474 5.435846
									CHANNELS 3 Xrotation Yrotation Zrotation
									JOINT mixamorig:RightHandThumb2
									{
										OFFSET -6.567429 -3.791718 3.791708
										CHANNELS 3 Xrotation Yrotation Zrotation
										JOINT mixamorig:RightHandThumb3
										{
											OFFSET -6.062469 -3.500153 3.500166
											CHANNELS 3 Xrotation Yrotation Zrotation
											JOINT mixamorig:RightHandThumb4
											{
												OFFSET -4.792618 -2.767029 2.767022
												CHANNELS 3 Xrotation Yrotation Zrotation
												End Site
												{
													OFFSET -0.100327 6.053253 1.276754
												}
											}
										}
									}
								}
								JOINT mixamorig:RightHandIndex1
								{
									OFFSET -23.048981 -0.310791 4.992554
									CHANNELS 3 Xrotation Yrotation Zrotation
									JOINT mixamorig:RightHandIndex2
									{
										OFFSET -6.227539 0.000000 0.000000
										CHANNELS 3 Xrotation Yrotation Zrotation
										JOINT mixamorig:RightHandIndex3
										{
											OFFSET -6.095047 0.000000 0.000000
											CHANNELS 3 Xrotation Yrotation Zrotation
											JOINT mixamorig:RightHandIndex4
											{
												OFFSET -5.484772 0.000000 0.000000
												CHANNELS 3 Xrotation Yrotation Zrotation
												End Site
												{
													OFFSET 1.420593 5.237305 0.797056
												}
											}
										}
									}
								}
								JOINT mixamorig:RightHandRing1
								{
									OFFSET -22.246323 0.020569 -3.963762
									CHANNELS 3 Xrotation Yrotation Zrotation
									JOINT mixamorig:RightHandRing2
									{
										OFFSET -6.322128 0.000000 0.000000
										CHANNELS 3 Xrotation Yrotation Zrotation
										JOINT mixamorig:RightHandRing3
										{
											OFFSET -5.900024 0.000000 0.000000
											CHANNELS 3 Xrotation Yrotation Zrotation
											JOINT mixamorig:RightHandRing4
											{
												OFFSET -6.518356 0.000000 0.000000
												CHANNELS 3 Xrotation Yrotation Zrotation
												End Site
												{
													OFFSET 1.636398 6.232697 0.982186
												}
											}
										}
									}
								}
								JOINT mixamorig:RightHandPinky1
								{
									OFFSET -20.411011 -0.303314 -8.561701
									CHANNELS 3 Xrotation Yrotation Zrotation
									JOINT mixamorig:RightHandPinky2
									{
										OFFSET -6.907349 0.000000 0.000000
										CHANNELS 3 Xrotation Yrotation Zrotation
										JOINT mixamorig:RightHandPinky3
										{
											OFFSET -4.623840 0.000000 0.000000
											CHANNELS 3 Xrotation Yrotation Zrotation
											JOINT mixamorig:RightHandPinky4
											{
												OFFSET -5.218353 0.000000 0.000000
												CHANNELS 3 Xrotation Yrotation Zrotation
												End Site
												{
													OFFSET 0.602097 5.118835 0.816273
												}
											}
										}
									}
								}
							}
						}
					}
				}
			}
		}
	}
	JOINT mixamorig:LeftUpLeg
	{
		OFFSET 18.168400 -13.561905 -0.039000
		CHANNELS 3 Xrotation Yrotation Zrotation
		JOINT mixamorig:LeftLeg
		{
			OFFSET 0.577358 -80.825211 -3.695000
			CHANNELS 3 Xrotation Yrotation Zrotation
			JOINT mixamorig:LeftFoot
			{
				OFFSET -0.577356 -83.370262 -6.520700
				CHANNELS 3 Xrotation Yrotation Zrotation
				JOINT mixamorig:LeftToeBase
				{
					OFFSET 0.750401 -20.798306 25.135401
					CHANNELS 3 Xrotation Yrotation Zrotation
					JOINT mixamorig:LeftToe_End
					{
						OFFSET -0.000500 0.001200 19.917799
						CHANNELS 3 Xrotation Yrotation Zrotation
						End Site
						{
							OFFSET 0.000000 19.917805 0.000000
						}
					}
				}
			}
		}
	}
	JOINT mixamorig:RightUpLeg
	{
		OFFSET -18.162500 -13.585098 -0.041000
		CHANNELS 3 Xrotation Yrotation Zrotation
		JOINT mixamorig:RightLeg
		{
			OFFSET -0.595024 -80.945297 -3.631900
			CHANNELS 3 Xrotation Yrotation Zrotation
			JOINT mixamorig:RightFoot
			{
				OFFSET 0.595024 -83.218193 -6.561200
				CHANNELS 3 Xrotation Yrotation Zrotation
				JOINT mixamorig:RightToeBase
				{
					OFFSET -0.753601 -20.807106 25.115000
					CHANNELS 3 Xrotation Yrotation Zrotation
					JOINT mixamorig:RightToe_End
					{
						OFFSET 0.000299 0.001700 19.918200
						CHANNELS 3 Xrotation Yrotation Zrotation
						End Site
						{
							OFFSET 0.000000 19.918203 0.000000
						}
					}
				}
			}
		}
	}
}
MOTION
Frames: 4
Frame Time: 0.033333
0.384579 179.908356 2.256096 18.363413 -4.001855 -1.168515 3.527701 -0.545325 1.714460 2.857225 -0.554533 0.861724 2.859397 -0.540883 0.863012 -12.196274 0.860096 0.865027 -8.374982 5.865154 -3.053732 -0.000000 0.000000 0.000000 -0.000000 0.000000 0.000000 -0.000000 0.000000 0.000000 2.661694 0.662913 -9.763904 -0.807581 -29.168477 -52.622776 -0.000123 -82.538137 -0.000141 -13.336904 -39.681879 31.526002 -0.927674 -0.847017 -14.376338 0.598245 2.581008 -26.096322 0.029257 0.585430 -5.722490 0.000001 -0.000001 0.000000 -1.840836 -9.507494 -9.240945 3.451767 2.496483 -2.901802 -4.638798 5.770473 5.875216 0.000001 0.000000 0.000002 8.217948 -16.471812 -19.121354 0.381207 2.080568 -20.763323 0.131204 1.234287 -12.136940 -0.000001 -0.000002 0.000000 1.356995 7.504420 -16.606249 0.277292 1.782657 -17.680675 0.359281 2.021792 -20.150375 -0.000002 -0.000000 0.000005 -6.913143 27.081874 -18.113727 0.156615 1.346904 -13.264105 0.052139 0.780663 -7.641027 -0.000002 0.000001 -0.000002 11.058075 15.939549 2.577355 -12.110157 31.948019 54.988846 0.000125 84.549307 -0.000127 0.663431 21.603636 -37.482285 0.246828 -3.759941 10.840686 0.518031 -2.136523 27.255597 0.283968 -1.602904 20.090896 0.000002 0.000000 -0.000002 -13.238800 13.184474 18.517124 7.301257 -18.369131 0.872443 -5.504783 -5.510956 -14.718518 0.000003 -0.000000 0.000001 -1.014769 7.769725 21.962772 0.344583 -1.759730 22.156799 0.039785 -0.608328 7.489054 -0.000002 -0.000001 -0.000002 3.034842 -11.064681 20.345272 0.219730 -1.415064 17.652219 0.259163 -1.533415 19.184681 0.000001 -0.000001 0.000002 -7.812431 -22.666005 19.385173 0.192780 -1.327522 16.527232 0.063841 -0.769218 9.486506 0.000000 -0.000001 0.000006 -46.790815 -3.077179 18.000796 50.196846 -6.980103 1.804800 -21.241689 3.290151 -14.990614 -2.968879 0.000001 0.000002 -0.000000 -0.000000 -0.000000 -47.704063 0.321706 -10.958414 48.273595 0.201070 -5.534698 -17.052822 -3.101913 17.304073 -3.794309 0.000007 -0.000002 0.000000 -0.000001 0.000000 
1.090920 180.458038 5.144360 18.355061 -4.322695 -1.031768 3.540423 -0.455760 1.789616 2.790131 -0.490216 0.833751 2.789089 -0.471865 0.850860 -12.131445 0.837689 0.875274 -8.211156 5.749220 -3.070724 0.000000 0.000000 0.000000 0.000000 0.000000 0.000000 0.000000 0.000000 0.000000 2.385997 0.562198 -9.280159 -1.918807 -30.866284 -53.728034 -0.000053 -83.001838 -0.000065 -15.166693 -40.320171 32.975518 -0.919327 -0.781213 -14.469706 0.601755 2.588169 -26.174222 0.031652 0.608792 -5.951713 0.000001 -0.000000 0.000002 -1.676544 -9.326215 -9.214071 3.470951 2.565131 -2.854744 -4.652071 5.832968 5.992126 0.000002 0.000000 0.000001 8.109444 -16.305364 -19.196872 0.385352 2.091463 -20.877172 0.136274 1.257537 -12.369243 -0.000000 -0.000001 -0.000006 1.356556 7.473051 -16.746820 0.279110 1.788400 -17.739432 0.369374 2.049112 -20.434927 0.000000 -0.000000 0.000002 -6.845133 26.855969 -18.096170 0.160340 1.362624 -13.421755 0.058979 0.830090 -8.128028 -0.000001 0.000001 -0.000001 10.668778 15.934597 2.492473 -12.441134 29.801621 53.994271 -0.000234 87.200690 0.000310 1.955304 21.453501 -36.377031 0.247781 -3.762817 10.877775 0.517184 -2.134887 27.233030 0.286017 -1.608417 20.163144 -0.000001 -0.000001 -0.000001 -13.104665 13.162994 18.354784 7.297036 -18.375799 0.833451 -5.490935 -5.611603 -14.740339 0.000003 -0.000000 0.000000 -0.987280 7.724298 21.866031 0.343424 -1.756915 22.119400 0.041415 -0.620462 7.639450 0.000002 -0.000001 0.000000 3.029198 -11.063598 20.308324 0.227807 -1.440168 17.976119 0.260867 -1.538307 19.248334 -0.000001 -0.000001 0.000001 -7.690623 -22.676843 19.426535 0.196141 -1.338725 16.670873 0.068452 -0.796381 9.824742 -0.000001 0.000002 -0.000001 -45.318838 -2.461814 17.843900 49.589803 -6.704772 1.740462 -22.112988 3.319170 -14.682670 -2.968895 -0.000002 -0.000002 -0.000000 0.000000 -0.000000 -46.156219 0.044359 -11.393834 47.068821 0.840308 -5.534737 -17.460426 -3.212367 17.447044 -3.794306 0.000002 -0.000004 0.000000 -0.000000 -0.000000 
1.920923 180.693253 8.179111 18.355872 -4.540413 -0.904131 3.578090 -0.439457 1.895389 2.744290 -0.479586 0.841607 2.740290 -0.456570 0.874560 -12.159820 0.822847 0.868665 -7.944585 5.619762 -2.905975 -0.000000 0.000000 -0.000000 -0.000000 0.000000 -0.000000 -0.000000 0.000000 -0.000000 2.113169 0.479629 -8.751976 -3.599238 -32.690798 -55.329833 0.000263 -83.315310 0.000294 -16.962847 -40.982508 34.439627 -0.910758 -0.715437 -14.563077 0.605295 2.595302 -26.252163 0.034150 0.632149 -6.180917 0.000001 -0.000001 0.000000 -1.512627 -9.144788 -9.188231 3.490004 2.633811 -2.807669 -4.665324 5.895366 6.109057 0.000002 0.000002 0.000000 8.001387 -16.138675 -19.271683 0.389529 2.102345 -20.990992 0.141403 1.280767 -12.601556 -0.000001 0.000001 -0.000001 1.355941 7.441730 -16.887395 0.280965 1.794108 -17.798165 0.379614 2.076372 -20.719509 0.000001 -0.000001 -0.000003 -6.776734 26.630091 -18.077860 0.164107 1.378313 -13.579391 0.066247 0.879453 -8.615033 -0.000001 -0.000000 0.000002 10.318108 16.022275 2.152595 -13.116092 27.745878 53.159902 -0.103951 90.042275 0.100004 3.538326 21.222948 -35.492146 0.248745 -3.765700 10.914860 0.516350 -2.133254 27.210468 0.288019 -1.613953 20.235395 0.000002 0.000000 0.000002 -12.970294 13.141089 18.192711 7.292810 -18.382447 0.794428 -5.477136 -5.712244 -14.762110 0.000004 -0.000000 0.000001 -0.960001 7.678784 21.769312 0.342293 -1.754084 22.081954 0.043068 -0.632598 7.789821 -0.000000 -0.000002 -0.000003 3.023541 -11.062542 20.271351 0.236006 -1.465238 18.300035 0.262576 -1.543202 19.311996 -0.000001 -0.000000 0.000001 -7.568808 -22.687623 19.467970 0.199520 -1.349925 16.814551 0.073247 -0.823505 10.162975 0.000000 -0.000000 -0.000000 -44.224983 -1.844938 17.581214 49.592310 -6.595725 1.727120 -22.939201 3.263856 -13.955426 -3.445241 -0.000004 0.000005 -0.000000 -0.000000 -0.000000 -44.708458 -0.152556 -11.916805 46.196486 1.371413 -5.535724 -18.078580 -3.366061 17.705939 -3.794305 -0.000003 -0.000003 -0.000000 -0.000001 -0.000000 
2.887072 180.662430 11.595192 18.393008 -4.676999 -0.810623 3.596822 -0.325664 2.078766 2.695689 -0.394894 0.907319 2.686906 -0.373249 0.956047 -12.283005 0.841239 0.719763 -7.566958 5.397580 -2.801130 -0.000000 -0.000000 0.000000 -0.000000 -0.000000 0.000000 -0.000000 -0.000000 0.000000 1.834698 0.163215 -8.470023 -5.490226 -33.912545 -56.987496 0.000495 -84.105133 0.000526 -17.890596 -40.924216 34.885813 -0.902028 -0.649695 -14.656425 0.608833 2.602468 -26.330118 0.036719 0.655486 -6.410141 0.000001 -0.000001 0.000004 -1.349077 -8.963253 -9.163383 3.508966 2.702535 -2.760642 -4.678615 5.957714 6.226060 0.000001 0.000000 0.000000 7.893723 -15.971793 -19.345754 0.393711 2.113227 -21.104847 0.146644 1.303975 -12.833882 -0.000000 -0.000001 -0.000002 1.355162 7.410421 -17.027928 0.282781 1.799845 -17.856903 0.389976 2.103595 -21.004080 -0.000000 0.000000 -0.000003 -6.708046 26.404219 -18.058773 0.167918 1.394007 -13.737034 0.073931 0.928742 -9.102065 -0.000001 -0.000001 0.000004 9.998742 15.889906 1.693390 -13.834449 25.656725 52.482381 -0.002240 92.928658 0.002357 5.143868 20.944427 -34.267486 0.249697 -3.768606 10.951955 0.515522 -2.131631 27.187875 0.290047 -1.619451 20.307667 0.000003 0.000000 -0.000000 -12.835715 13.118775 18.030885 7.288555 -18.389133 0.755392 -5.463376 -5.812911 -14.783881 0.000002 0.000000 0.000001 -0.932845 7.633224 21.672597 0.341152 -1.751268 22.044523 0.044737 -0.644732 7.940230 0.000002 -0.000003 -0.000003 3.017885 -11.061488 20.234401 0.244372 -1.490241 18.623954 0.264298 -1.548088 19.375650 -0.000000 -0.000000 0.000004 -7.446941 -22.698317 19.509527 0.202910 -1.361123 16.958207 0.078183 -0.850603 10.501231 -0.000001 0.000002 0.000003 -44.238780 -1.493117 17.279489 51.280480 -6.824975 1.711597 -22.395297 2.944085 -12.734047 -6.751630 -0.000000 -0.000002 0.000001 -0.000000 0.000000 -43.231959 -0.303964 -12.501808 45.520400 1.792677 -5.539389 -18.930081 -3.567124 18.084724 -3.794303 -0.000000 -0.000001 0.000000 -0.000000 0.000000 
